<mxfile host="app.diagrams.net" modified="2022-10-31T14:55:19.088Z" agent="5.0 (Windows NT 10.0; Win64; x64) AppleWebKit/537.36 (KHTML, like Gecko) Chrome/107.0.0.0 Safari/537.36 Edg/107.0.1418.26" etag="KX0WJaHReTGGCSAA7Upl" version="20.5.1" type="github">
  <diagram id="bQ3TJrQ8F5CF6m3CyqSz" name="第 1 页">
    <mxGraphModel dx="1550" dy="859" grid="1" gridSize="10" guides="1" tooltips="1" connect="1" arrows="1" fold="1" page="1" pageScale="1" pageWidth="827" pageHeight="1169" math="0" shadow="0">
      <root>
        <mxCell id="0" />
        <mxCell id="1" parent="0" />
        <mxCell id="_dHRODRLi2vF83DdnlVy-12" value="&lt;p style=&quot;margin:0px;margin-top:4px;text-align:center;&quot;&gt;&lt;i&gt;&amp;lt;&amp;lt;Interface&amp;gt;&amp;gt;&lt;/i&gt;&lt;br&gt;&lt;b&gt;ServiceInterface&lt;/b&gt;&lt;/p&gt;&lt;hr size=&quot;1&quot;&gt;&lt;p style=&quot;margin:0px;margin-left:4px;&quot;&gt;+ operator()&lt;/p&gt;" style="verticalAlign=top;align=left;overflow=fill;fontSize=12;fontFamily=Helvetica;html=1;" vertex="1" parent="1">
          <mxGeometry x="309" y="220" width="190" height="70" as="geometry" />
        </mxCell>
        <mxCell id="_dHRODRLi2vF83DdnlVy-13" value="Service" style="swimlane;fontStyle=1;align=center;verticalAlign=top;childLayout=stackLayout;horizontal=1;startSize=26;horizontalStack=0;resizeParent=1;resizeParentMax=0;resizeLast=0;collapsible=1;marginBottom=0;" vertex="1" parent="1">
          <mxGeometry x="134" y="450" width="160" height="86" as="geometry" />
        </mxCell>
        <mxCell id="_dHRODRLi2vF83DdnlVy-14" value="...." style="text;strokeColor=none;fillColor=none;align=left;verticalAlign=top;spacingLeft=4;spacingRight=4;overflow=hidden;rotatable=0;points=[[0,0.5],[1,0.5]];portConstraint=eastwest;" vertex="1" parent="_dHRODRLi2vF83DdnlVy-13">
          <mxGeometry y="26" width="160" height="26" as="geometry" />
        </mxCell>
        <mxCell id="_dHRODRLi2vF83DdnlVy-15" value="" style="line;strokeWidth=1;fillColor=none;align=left;verticalAlign=middle;spacingTop=-1;spacingLeft=3;spacingRight=3;rotatable=0;labelPosition=right;points=[];portConstraint=eastwest;strokeColor=inherit;" vertex="1" parent="_dHRODRLi2vF83DdnlVy-13">
          <mxGeometry y="52" width="160" height="8" as="geometry" />
        </mxCell>
        <mxCell id="_dHRODRLi2vF83DdnlVy-16" value="+ operator()" style="text;strokeColor=none;fillColor=none;align=left;verticalAlign=top;spacingLeft=4;spacingRight=4;overflow=hidden;rotatable=0;points=[[0,0.5],[1,0.5]];portConstraint=eastwest;" vertex="1" parent="_dHRODRLi2vF83DdnlVy-13">
          <mxGeometry y="60" width="160" height="26" as="geometry" />
        </mxCell>
        <mxCell id="_dHRODRLi2vF83DdnlVy-17" value="Proxy" style="swimlane;fontStyle=1;align=center;verticalAlign=top;childLayout=stackLayout;horizontal=1;startSize=26;horizontalStack=0;resizeParent=1;resizeParentMax=0;resizeLast=0;collapsible=1;marginBottom=0;" vertex="1" parent="1">
          <mxGeometry x="504" y="410" width="160" height="150" as="geometry" />
        </mxCell>
        <mxCell id="_dHRODRLi2vF83DdnlVy-18" value="- service: Service" style="text;strokeColor=none;fillColor=none;align=left;verticalAlign=top;spacingLeft=4;spacingRight=4;overflow=hidden;rotatable=0;points=[[0,0.5],[1,0.5]];portConstraint=eastwest;" vertex="1" parent="_dHRODRLi2vF83DdnlVy-17">
          <mxGeometry y="26" width="160" height="26" as="geometry" />
        </mxCell>
        <mxCell id="_dHRODRLi2vF83DdnlVy-19" value="" style="line;strokeWidth=1;fillColor=none;align=left;verticalAlign=middle;spacingTop=-1;spacingLeft=3;spacingRight=3;rotatable=0;labelPosition=right;points=[];portConstraint=eastwest;strokeColor=inherit;" vertex="1" parent="_dHRODRLi2vF83DdnlVy-17">
          <mxGeometry y="52" width="160" height="8" as="geometry" />
        </mxCell>
        <mxCell id="_dHRODRLi2vF83DdnlVy-31" value="+ Proxy(service: Service)" style="text;strokeColor=none;fillColor=none;align=left;verticalAlign=top;spacingLeft=4;spacingRight=4;overflow=hidden;rotatable=0;points=[[0,0.5],[1,0.5]];portConstraint=eastwest;" vertex="1" parent="_dHRODRLi2vF83DdnlVy-17">
          <mxGeometry y="60" width="160" height="30" as="geometry" />
        </mxCell>
        <mxCell id="_dHRODRLi2vF83DdnlVy-20" value="+ checkAccess()" style="text;strokeColor=none;fillColor=none;align=left;verticalAlign=top;spacingLeft=4;spacingRight=4;overflow=hidden;rotatable=0;points=[[0,0.5],[1,0.5]];portConstraint=eastwest;" vertex="1" parent="_dHRODRLi2vF83DdnlVy-17">
          <mxGeometry y="90" width="160" height="30" as="geometry" />
        </mxCell>
        <mxCell id="_dHRODRLi2vF83DdnlVy-21" value="+ operator()" style="text;strokeColor=none;fillColor=none;align=left;verticalAlign=top;spacingLeft=4;spacingRight=4;overflow=hidden;rotatable=0;points=[[0,0.5],[1,0.5]];portConstraint=eastwest;" vertex="1" parent="_dHRODRLi2vF83DdnlVy-17">
          <mxGeometry y="120" width="160" height="30" as="geometry" />
        </mxCell>
        <mxCell id="_dHRODRLi2vF83DdnlVy-27" value="" style="endArrow=block;dashed=1;endFill=0;endSize=12;html=1;rounded=0;exitX=0.5;exitY=0;exitDx=0;exitDy=0;entryX=0.5;entryY=1;entryDx=0;entryDy=0;" edge="1" parent="1" source="_dHRODRLi2vF83DdnlVy-13" target="_dHRODRLi2vF83DdnlVy-12">
          <mxGeometry width="160" relative="1" as="geometry">
            <mxPoint x="274" y="330" as="sourcePoint" />
            <mxPoint x="434" y="330" as="targetPoint" />
            <Array as="points">
              <mxPoint x="214" y="360" />
              <mxPoint x="404" y="360" />
            </Array>
          </mxGeometry>
        </mxCell>
        <mxCell id="_dHRODRLi2vF83DdnlVy-28" value="" style="endArrow=block;dashed=1;endFill=0;endSize=12;html=1;rounded=0;exitX=0.5;exitY=0;exitDx=0;exitDy=0;entryX=0.5;entryY=1;entryDx=0;entryDy=0;" edge="1" parent="1" source="_dHRODRLi2vF83DdnlVy-17" target="_dHRODRLi2vF83DdnlVy-12">
          <mxGeometry width="160" relative="1" as="geometry">
            <mxPoint x="224" y="390" as="sourcePoint" />
            <mxPoint x="409" y="310" as="targetPoint" />
            <Array as="points">
              <mxPoint x="584" y="360" />
              <mxPoint x="404" y="360" />
            </Array>
          </mxGeometry>
        </mxCell>
        <mxCell id="_dHRODRLi2vF83DdnlVy-30" value="" style="endArrow=diamondThin;endFill=0;endSize=24;html=1;rounded=0;entryX=0;entryY=0.027;entryDx=0;entryDy=0;entryPerimeter=0;exitX=1;exitY=0.9;exitDx=0;exitDy=0;exitPerimeter=0;" edge="1" parent="1" source="_dHRODRLi2vF83DdnlVy-14" target="_dHRODRLi2vF83DdnlVy-20">
          <mxGeometry width="160" relative="1" as="geometry">
            <mxPoint x="294" y="424" as="sourcePoint" />
            <mxPoint x="458" y="422.5" as="targetPoint" />
          </mxGeometry>
        </mxCell>
        <mxCell id="_dHRODRLi2vF83DdnlVy-32" value="if(checkAccess()) {&lt;br&gt;&lt;span style=&quot;white-space: pre;&quot;&gt;	&lt;/span&gt;service.operator()&lt;br&gt;}" style="shape=note;whiteSpace=wrap;html=1;backgroundOutline=1;darkOpacity=0.05;align=left;fillColor=#6d8764;fontColor=#ffffff;strokeColor=#3A5431;" vertex="1" parent="1">
          <mxGeometry x="504" y="630" width="190" height="60" as="geometry" />
        </mxCell>
        <mxCell id="_dHRODRLi2vF83DdnlVy-33" value="" style="endArrow=none;dashed=1;html=1;dashPattern=1 3;strokeWidth=2;rounded=0;entryX=0;entryY=0.5;entryDx=0;entryDy=0;exitX=0;exitY=0.5;exitDx=0;exitDy=0;exitPerimeter=0;" edge="1" parent="1" source="_dHRODRLi2vF83DdnlVy-32" target="_dHRODRLi2vF83DdnlVy-21">
          <mxGeometry width="50" height="50" relative="1" as="geometry">
            <mxPoint x="394" y="660" as="sourcePoint" />
            <mxPoint x="444" y="610" as="targetPoint" />
            <Array as="points">
              <mxPoint x="444" y="660" />
              <mxPoint x="444" y="545" />
            </Array>
          </mxGeometry>
        </mxCell>
        <mxCell id="_dHRODRLi2vF83DdnlVy-34" value="Client" style="html=1;fontStyle=1" vertex="1" parent="1">
          <mxGeometry x="349" y="90" width="110" height="50" as="geometry" />
        </mxCell>
        <mxCell id="_dHRODRLi2vF83DdnlVy-36" value="" style="endArrow=open;endFill=1;endSize=12;html=1;rounded=0;exitX=0.5;exitY=1;exitDx=0;exitDy=0;entryX=0.5;entryY=0;entryDx=0;entryDy=0;" edge="1" parent="1" source="_dHRODRLi2vF83DdnlVy-34" target="_dHRODRLi2vF83DdnlVy-12">
          <mxGeometry width="160" relative="1" as="geometry">
            <mxPoint x="400" y="170" as="sourcePoint" />
            <mxPoint x="560" y="170" as="targetPoint" />
          </mxGeometry>
        </mxCell>
      </root>
    </mxGraphModel>
  </diagram>
</mxfile>
